<?xml version="1.0" encoding="iso-8859-1"?>
<!-- Generator: Adobe Illustrator 19.0.0, SVG Export Plug-In . SVG Version: 6.00 Build 0)  -->
<svg version="1.1" id="Layer_1" xmlns="http://www.w3.org/2000/svg" xmlns:xlink="http://www.w3.org/1999/xlink" x="0px" y="0px"
	 viewBox="0 0 394.043 394.043" style="enable-background:new 0 0 394.043 394.043;" xml:space="preserve">
<circle style="fill:#FF6D3B;" cx="178.462" cy="197.022" r="178.462"/>
<path style="fill:#F2F2F2;" d="M124.935,197.024H62.969c0-63.682,51.806-115.486,115.481-115.486l0.01,61.967
	C148.943,143.505,124.935,167.513,124.935,197.024z"/>
<path style="fill:#3E4959;" d="M216.29,159.178c-10.102-10.105-23.54-15.673-37.831-15.673V81.538
	c30.846,0,59.85,12.017,81.657,33.834L216.29,159.178z"/>
<path style="fill:#21D8DE;" d="M260.106,278.683l-43.806-43.83c10.105-10.102,15.67-23.54,15.67-37.829
	c0-14.297-5.566-27.734-15.67-37.836l43.806-43.828c21.819,21.807,33.834,50.811,33.834,81.664
	C293.94,227.872,281.925,256.871,260.106,278.683z"/>
<path style="fill:#FFD55C;" d="M178.449,312.505c-63.675,0-115.481-51.806-115.481-115.481h61.967
	c0,29.506,24.007,53.509,53.514,53.509c14.302,0,27.742-5.566,37.841-15.668l43.825,43.806
	C238.309,300.487,209.305,312.505,178.449,312.505z"/>
<polygon style="fill:#F2F2F2;" points="91.222,122.223 86.666,105.221 103.668,109.777 "/>
<polygon style="fill:#FFD55C;" points="142.575,306.287 128.608,317.002 126.309,299.55 "/>
<polygon style="fill:#21D8DE;" points="293.142,188.219 308.386,197.024 293.142,205.822 "/>
<polygon style="fill:#3E4959;" points="214.215,87.623 228.18,76.906 230.481,94.358 "/>
<path style="fill:#FFB733;" d="M111.801,197.024c0,36.81,29.841,66.656,66.658,66.656c18.407,0,35.067-7.458,47.131-19.522
	l-9.3-9.292c-10.102,10.102-23.54,15.668-37.841,15.668c-29.506,0-53.514-24.002-53.514-53.509H111.801z"/>
<path style="fill:#06B2B8;" d="M225.593,244.153c12.062-12.062,19.525-28.729,19.525-47.136c0-18.405-7.461-35.07-19.522-47.129
	l-9.295,9.3c10.105,10.102,15.67,23.54,15.67,37.836c0,14.289-5.566,27.729-15.67,37.829L225.593,244.153z"/>
<path style="fill:#242D3C;" d="M216.29,159.178l9.302-9.292c-12.066-12.062-28.729-19.525-47.134-19.525v13.145
	C192.751,143.505,206.191,149.073,216.29,159.178z"/>
<path style="fill:#D9D8D7;" d="M178.459,143.505v-13.145c-36.817,0-66.658,29.844-66.658,66.656v0.007h13.135
	C124.935,167.513,148.943,143.505,178.459,143.505z"/>
<rect x="232.345" y="51.552" style="fill:#3E4959;" width="81.502" height="21.189"/>
<rect x="312.542" y="186.412" style="fill:#21D8DE;" width="81.502" height="21.189"/>
<rect x="42.954" y="321.157" style="fill:#FFD55C;" width="81.502" height="21.189"/>
<rect x="1.007" y="79.877" style="fill:#F2F2F2;" width="81.502" height="21.186"/>
<g>
</g>
<g>
</g>
<g>
</g>
<g>
</g>
<g>
</g>
<g>
</g>
<g>
</g>
<g>
</g>
<g>
</g>
<g>
</g>
<g>
</g>
<g>
</g>
<g>
</g>
<g>
</g>
<g>
</g>
</svg>
